<svg id="visual" viewBox="0 0 900 600" width="900" height="600" xmlns="http://www.w3.org/2000/svg" xmlns:xlink="http://www.w3.org/1999/xlink" version="1.1"><rect x="0" y="0" width="900" height="600" fill="#f6f6f6"></rect><path d="M0 192L25 203.8C50 215.7 100 239.3 150 225C200 210.7 250 158.3 300 153C350 147.7 400 189.3 450 215.2C500 241 550 251 600 243.3C650 235.7 700 210.3 750 187.3C800 164.3 850 143.7 875 133.3L900 123L900 0L875 0C850 0 800 0 750 0C700 0 650 0 600 0C550 0 500 0 450 0C400 0 350 0 300 0C250 0 200 0 150 0C100 0 50 0 25 0L0 0Z" fill="#002266" stroke-linecap="round" stroke-linejoin="miter"></path></svg>