<svg id="visual" viewBox="0 0 900 600" width="900" height="600" xmlns="http://www.w3.org/2000/svg" xmlns:xlink="http://www.w3.org/1999/xlink" version="1.1"><rect x="0" y="0" width="900" height="600" fill="#5865f2"></rect><path d="M0 406L25 394.2C50 382.3 100 358.7 150 373C200 387.3 250 439.7 300 445C350 450.3 400 408.7 450 382.8C500 357 550 347 600 354.7C650 362.3 700 387.7 750 410.7C800 433.7 850 454.3 875 464.7L900 475L900 601L875 601C850 601 800 601 750 601C700 601 650 601 600 601C550 601 500 601 450 601C400 601 350 601 300 601C250 601 200 601 150 601C100 601 50 601 25 601L0 601Z" fill="#002266" stroke-linecap="round" stroke-linejoin="miter"></path></svg>